<?xml version="1.0" encoding="utf-8"?>
<!-- Generator: Adobe Illustrator 24.1.2, SVG Export Plug-In . SVG Version: 6.00 Build 0)  -->
<svg version="1.1" id="Warstwa_1" xmlns="http://www.w3.org/2000/svg" xmlns:xlink="http://www.w3.org/1999/xlink" x="0px" y="0px"
	 viewBox="0 0 430 430" style="enable-background:new 0 0 430 430;" xml:space="preserve">
<style type="text/css">
	.st0{fill:#ffffff;}
	.st1{fill:#ffffff;}
	.st2{fill-opacity:0;}
	.st3{fill:none;}
</style>
<g>
	<path class="st1" d="M215,280.7c-36.23,0-65.7-29.47-65.7-65.7s29.47-65.7,65.7-65.7s65.7,29.47,65.7,65.7S251.23,280.7,215,280.7z
		 M215,161.37c-29.57,0-53.63,24.06-53.63,53.63s24.06,53.63,53.63,53.63s53.63-24.06,53.63-53.63S244.57,161.37,215,161.37z"/>
	<path class="st0" d="M215.02,303.29c-32.86,0-65.52-8-94.45-23.13c-28-14.65-52.58-35.96-71.08-61.62c-1.52-2.11-1.52-4.96,0-7.06
		c18.52-25.67,43.11-46.98,71.09-61.62c28.92-15.13,61.58-23.13,94.44-23.13c32.84,0,65.49,8,94.41,23.13
		c27.98,14.64,52.56,35.95,71.09,61.62c1.52,2.11,1.52,4.95,0,7.06c-18.51,25.67-43.08,46.98-71.06,61.62
		C280.53,295.29,247.88,303.29,215.02,303.29z M61.89,215c36.16,47.8,93.07,76.21,153.13,76.21c60.03,0,116.93-28.41,153.09-76.21
		c-36.19-47.8-93.09-76.21-153.09-76.21C155,138.79,98.09,167.2,61.89,215z"/>
</g>
</svg>
